<svg version="1.1" id="Layer_1" xmlns="http://www.w3.org/2000/svg" xmlns:xlink="http://www.w3.org/1999/xlink" x="0px" y="0px"
	 width="100%" viewBox="0 0 1024 1024" enable-background="new 0 0 1024 1024" xml:space="preserve">
<path fill="#000000" opacity="1.000000" stroke="none" 
	d="
M386.056702,350.682037 
	C407.400757,352.154175 428.186584,354.493164 448.940582,357.189697 
	C461.771881,358.856842 474.641418,360.238129 487.504700,361.647827 
	C497.398682,362.732117 507.300751,364.354858 517.215515,364.483948 
	C529.836914,364.648346 542.263123,361.752991 554.769043,360.160889 
	C573.208679,357.813385 591.618591,355.238953 610.145447,353.631805 
	C621.729736,352.626892 633.313232,351.605042 644.885193,350.470428 
	C646.694275,350.293060 647.966858,350.374237 649.171509,351.988434 
	C662.621948,370.011078 677.221069,387.110657 691.480408,404.483704 
	C692.090454,405.226898 692.542603,406.099640 693.058594,406.896942 
	C691.939148,408.944214 690.075745,409.027252 688.327148,409.450195 
	C638.540771,421.492859 588.992676,434.426422 539.934326,449.189545 
	C532.927979,451.297913 525.772949,452.985840 518.918945,455.501190 
	C514.218933,457.225983 510.035675,456.780365 505.400024,455.502106 
	C449.977661,440.220062 394.519562,425.068298 338.272095,413.024323 
	C335.548828,412.441223 332.667816,412.152130 329.930023,410.261841 
	C330.904327,406.476379 333.755157,403.792938 336.137451,401.019745 
	C348.728363,386.362976 360.799866,371.297882 371.972473,355.541473 
	C374.768768,351.597931 377.668030,349.350952 382.601654,350.615753 
	C383.541992,350.856812 384.592438,350.668549 386.056702,350.682037 
z"/>
<path fill="#000000" opacity="1.000000" stroke="none" 
	d="
M455.002441,281.719238 
	C481.156799,281.696320 506.814789,281.903442 532.465637,281.567169 
	C548.926208,281.351410 565.376770,280.348145 581.830444,279.664337 
	C584.437866,279.556000 586.519287,280.040924 588.386475,282.259705 
	C601.356201,297.671722 614.469910,312.962494 627.519470,328.307495 
	C627.929199,328.789276 628.143555,329.437134 628.422058,329.957275 
	C627.738892,331.859924 626.133911,331.944763 624.715515,332.137604 
	C594.614563,336.229492 564.366394,339.465027 534.455017,344.646240 
	C514.540039,348.095886 495.482452,344.461548 476.136261,342.030792 
	C456.709900,339.589966 437.300629,336.999817 417.914673,334.257385 
	C410.609467,333.223938 403.126862,333.003448 396.173157,330.873260 
	C395.675934,327.974335 397.254486,326.563751 398.511017,325.079346 
	C410.235291,311.228943 422.012451,297.423218 433.710663,283.550934 
	C435.052399,281.959808 436.540985,281.530975 438.511749,281.580414 
	C443.839996,281.714142 449.172363,281.684113 455.002441,281.719238 
z"/>
<path fill="#000000" opacity="1.000000" stroke="none" 
	d="
M596.975769,572.247681 
	C579.719116,571.105408 562.858154,571.576843 546.154053,569.342102 
	C544.182129,569.078308 542.214783,568.735901 540.271301,568.310852 
	C526.935791,565.394287 520.734131,558.593506 519.786560,545.059692 
	C519.288025,537.938538 519.338257,530.767334 520.846680,523.677612 
	C523.964722,509.023407 532.103149,501.156830 547.029175,499.793457 
	C569.960632,497.698792 592.929382,498.429565 615.804565,500.682220 
	C628.618103,501.944031 637.094238,511.657257 637.247742,524.776917 
	C637.425903,539.992249 639.348450,536.998779 625.228882,537.335815 
	C622.730469,537.395447 620.203308,537.106689 617.734741,537.383301 
	C612.217102,538.001587 608.026672,537.288391 607.742737,530.328064 
	C607.614990,527.196228 604.798706,526.446899 602.208130,526.434753 
	C586.720093,526.362427 571.231384,526.365662 555.743286,526.436829 
	C551.156311,526.457886 549.720947,530.019836 549.592957,533.553711 
	C549.452942,537.421509 549.461975,541.951721 554.461426,543.404053 
	C556.991821,544.139160 559.694946,544.518188 562.334229,544.600403 
	C576.648865,545.046448 590.968323,545.335510 605.285339,545.708069 
	C611.980835,545.882324 618.610229,547.019592 624.855408,549.194519 
	C631.708313,551.581177 636.914062,556.232666 638.771790,563.736206 
	C641.837158,576.117310 641.686951,588.527649 637.942200,600.653992 
	C634.520874,611.733154 623.349548,618.650452 609.782898,619.344543 
	C589.127136,620.401367 568.464172,620.208862 547.837830,619.155029 
	C532.096069,618.350830 521.011597,612.477234 519.392639,592.371216 
	C518.285950,578.626343 518.198608,581.002869 529.827881,580.836365 
	C534.159241,580.774353 538.497559,581.045105 542.824890,580.911377 
	C546.245728,580.805664 548.267822,581.855469 548.284058,585.607483 
	C548.303955,590.209839 550.826538,591.856140 555.288452,592.065857 
	C571.606567,592.832825 587.905579,593.259094 604.206726,591.738892 
	C609.933350,591.204712 611.418579,589.894165 611.844299,584.100769 
	C611.977539,582.288086 611.807495,580.448303 611.708984,578.624512 
	C611.479736,574.381104 609.217957,572.291687 604.962036,572.316772 
	C602.462769,572.331543 599.963013,572.283020 596.975769,572.247681 
z"/>
<path fill="#000000" opacity="1.000000" stroke="none" 
	d="
M787.250000,511.611725 
	C786.769043,499.829102 786.769043,499.838715 797.931763,499.846619 
	C819.416382,499.861786 840.902283,499.729523 862.384827,499.946960 
	C869.833679,500.022339 877.299316,500.559052 884.609924,502.449280 
	C902.040649,506.956146 911.370911,517.287781 912.050049,535.230347 
	C912.653503,551.172729 913.182800,567.183289 911.452454,583.134277 
	C909.201172,603.886963 896.936646,615.702271 875.949707,617.302612 
	C847.845764,619.445679 819.697754,617.769836 791.577454,618.365967 
	C786.870605,618.465759 787.274841,615.708313 787.320618,612.480347 
	C787.795837,579.012207 787.901611,545.542847 787.250000,511.611725 
M861.398987,590.885925 
	C875.496582,590.256653 879.637390,587.254150 881.259644,573.866394 
	C882.536987,563.325256 882.482117,552.549927 881.181396,541.979370 
	C879.984131,532.248657 876.866699,529.542786 867.043823,528.250977 
	C852.131714,526.289917 837.122620,527.779419 822.163757,527.345337 
	C818.553101,527.240601 818.286621,529.544922 818.293213,532.307495 
	C818.335815,550.122070 818.414429,567.937622 818.255066,585.750793 
	C818.219727,589.697510 819.661377,591.072876 823.468445,591.033264 
	C835.786621,590.905334 848.106689,590.956543 861.398987,590.885925 
z"/>
<path fill="#000000" opacity="1.000000" stroke="none" 
	d="
M733.000122,545.651001 
	C741.332825,545.657349 749.168579,545.796753 756.996643,545.611511 
	C760.640015,545.525330 762.204407,546.891296 762.140686,550.505615 
	C762.049744,555.669983 761.935486,560.845459 762.172791,566.000488 
	C762.362976,570.132568 760.770996,571.506348 756.653931,571.475159 
	C736.490417,571.322388 716.325012,571.395569 696.160278,571.419983 
	C688.352783,571.429443 688.281372,571.467529 688.364868,579.316406 
	C688.503418,592.344360 686.455872,590.594055 699.766174,590.652649 
	C720.930542,590.745728 742.095520,590.692566 763.260254,590.710327 
	C770.285950,590.716248 770.291931,590.729004 770.305542,597.955872 
	C770.315552,603.288696 770.204590,608.624268 770.346069,613.953308 
	C770.429871,617.111572 769.290100,618.412781 766.012146,618.404541 
	C731.682190,618.318176 697.351868,618.276184 663.022034,618.371643 
	C658.370972,618.384583 658.576965,615.596375 658.579834,612.462708 
	C658.603821,586.465454 658.837036,560.465027 658.482605,534.472656 
	C658.346375,524.478027 658.427246,514.502869 658.493042,504.516113 
	C658.517029,500.871582 659.887878,499.835480 663.153137,499.835907 
	C696.649414,499.840149 730.145813,499.813538 763.641968,499.742889 
	C766.756775,499.736298 768.182251,500.836029 768.108276,504.143677 
	C767.978027,509.971497 767.973694,515.815735 768.271118,521.635010 
	C768.491272,525.943176 767.000610,527.448242 762.563171,527.409607 
	C740.233521,527.214966 717.901367,527.308716 695.570068,527.305176 
	C688.328735,527.304016 688.286682,527.309692 688.321777,534.385254 
	C688.382324,546.596008 686.642944,545.638306 699.502625,545.656921 
	C710.501770,545.672791 721.500977,545.654419 733.000122,545.651001 
z"/>
<path fill="#000000" opacity="1.000000" stroke="none" 
	d="
M222.851746,565.462830 
	C218.303619,578.986450 209.217117,585.070007 192.945053,585.262939 
	C176.455353,585.458496 159.959732,585.493408 143.471481,585.260742 
	C138.639557,585.192566 137.025635,586.741577 137.242676,591.547852 
	C137.580505,599.028687 137.229309,606.538086 137.365738,614.031799 
	C137.425186,617.296814 136.100357,618.472046 132.926529,618.374268 
	C125.934662,618.158875 118.937279,618.094177 111.941589,618.042969 
	C108.286835,618.016235 106.665489,616.622314 106.684296,612.642090 
	C106.854340,576.661072 106.891823,540.679199 106.851074,504.697784 
	C106.846855,500.971741 108.168739,499.851501 111.848793,499.873077 
	C133.503632,500.000153 155.161469,499.750488 176.814392,499.986145 
	C183.429550,500.058105 190.088409,500.479797 196.673279,501.606781 
	C213.296768,504.451752 221.893692,513.085144 224.159256,529.858032 
	C225.750763,541.640625 225.520706,553.412292 222.851746,565.462830 
M153.505951,527.197144 
	C149.850616,527.205872 146.186584,527.375610 142.542328,527.179016 
	C138.725296,526.973083 137.133545,528.372192 137.259674,532.340088 
	C137.486588,539.477722 137.493469,546.631653 137.287231,553.769958 
	C137.181976,557.412842 138.366852,558.783081 142.114258,558.718506 
	C153.077118,558.529602 164.050980,558.411621 175.009705,558.690796 
	C189.143585,559.050842 193.643814,558.412903 192.810898,540.339600 
	C192.394638,531.307434 188.635010,527.518127 179.424728,527.342712 
	C171.119751,527.184570 162.810760,527.237610 153.505951,527.197144 
z"/>
<path fill="#000000" opacity="1.000000" stroke="none" 
	d="
M329.958069,532.962463 
	C329.856934,523.306641 329.928558,514.138489 329.578979,504.986420 
	C329.430023,501.086700 330.560364,499.567688 334.582153,499.725189 
	C340.903839,499.972748 347.254333,500.022003 353.570312,499.707611 
	C358.632050,499.455627 360.316559,501.562622 360.288910,506.417969 
	C360.174194,526.578064 360.276306,546.739319 360.296295,566.900146 
	C360.311310,582.062378 360.338837,597.224670 360.313629,612.386841 
	C360.310638,614.173157 360.730774,616.045044 359.442078,618.254639 
	C350.929321,618.254639 342.148163,618.296021 333.367676,618.235413 
	C329.605072,618.209412 329.870361,615.288513 329.909332,612.824768 
	C330.088409,601.501282 330.389008,590.179871 330.585846,578.856689 
	C330.700256,572.274780 330.582977,572.200378 323.933105,572.163818 
	C308.272278,572.077759 292.611481,571.976318 276.950531,571.928772 
	C270.718323,571.909851 270.364410,572.280334 270.348328,578.360352 
	C270.321045,588.690674 270.387421,599.021423 270.322662,609.351379 
	C270.271912,617.449524 269.444214,618.229248 261.545288,618.204834 
	C256.047516,618.187805 250.548721,618.198914 245.052444,618.091797 
	C241.353149,618.019775 239.515442,616.524048 239.572021,612.299072 
	C240.053940,576.319702 240.364609,540.337891 240.624008,504.356049 
	C240.649414,500.829498 242.063568,499.690033 245.423889,499.774597 
	C251.751404,499.933868 258.091248,499.981964 264.415131,499.762909 
	C268.097900,499.635376 269.440125,500.958160 269.398132,504.650940 
	C269.269318,515.979065 269.519104,527.311951 269.345398,538.638794 
	C269.285187,542.564758 270.591125,543.798340 274.534576,543.772217 
	C290.361298,543.667297 306.190063,543.907532 322.018250,543.964294 
	C329.827057,543.992310 329.827820,543.937195 329.942688,535.955627 
	C329.954651,535.122681 329.954742,534.289673 329.958069,532.962463 
z"/>
<path fill="#000000" opacity="1.000000" stroke="none" 
	d="
M402.359924,549.430725 
	C409.230621,534.228821 416.061920,519.423767 422.559723,504.473663 
	C424.084259,500.966064 426.232971,499.702454 429.776642,499.729553 
	C438.435028,499.795807 447.099976,499.932831 455.750519,499.663147 
	C459.495880,499.546387 461.441895,500.892731 462.926636,504.249237 
	C471.003174,522.507812 479.318329,540.660767 487.444092,558.897827 
	C495.160004,576.214966 502.747375,593.589417 510.380615,610.943298 
	C511.302094,613.038269 512.499695,615.083252 512.020447,618.194763 
	C502.196167,618.194763 492.459961,618.237305 482.724731,618.160767 
	C480.645660,618.144470 480.294586,616.240173 479.674042,614.689026 
	C477.759125,609.902100 475.696167,605.172729 473.861176,600.356079 
	C472.919067,597.883240 471.653900,596.797791 468.744690,596.822510 
	C451.595093,596.968567 434.442688,596.921570 417.292847,596.764343 
	C414.543793,596.739197 412.980347,597.511536 411.948730,600.078552 
	C409.963745,605.018005 407.750244,609.865967 405.608521,614.741821 
	C404.876038,616.409363 404.273560,618.305725 401.958191,618.311279 
	C392.344849,618.334534 382.731445,618.321106 371.915466,618.321106 
	C382.288452,594.841797 392.243622,572.308167 402.359924,549.430725 
M443.499512,569.634949 
	C446.994659,569.634583 450.498688,569.477051 453.982605,569.674561 
	C458.139771,569.910095 459.050537,568.190491 457.534363,564.594604 
	C453.917328,556.016113 450.357208,547.413269 446.673431,538.863586 
	C445.726013,536.664673 445.485016,534.034302 442.735565,531.990784 
	C437.247040,544.111511 431.874298,555.976440 426.310486,568.263367 
	C431.967255,570.512146 437.325775,569.200012 443.499512,569.634949 
z"/>
<path fill="#000000" opacity="1.000000" stroke="none" 
	d="
M564.986389,740.371948 
	C552.166748,740.358337 539.840454,740.536316 527.524231,740.260742 
	C518.900757,740.067810 510.941833,737.872864 506.314697,729.578369 
	C503.662354,724.823975 502.752167,719.470581 502.772491,714.173645 
	C502.822205,701.212585 502.045746,688.249146 503.554504,675.282959 
	C504.981567,663.018921 509.942230,656.508240 522.284912,655.016968 
	C541.322632,652.716919 560.525696,652.669739 579.510132,655.457397 
	C593.958130,657.578857 598.594482,662.339172 599.856384,676.833252 
	C601.079773,690.884094 600.892578,705.055054 598.744690,719.140747 
	C596.260376,735.433105 588.910889,738.913635 573.473755,740.299561 
	C570.829773,740.536926 568.148193,740.357056 564.986389,740.371948 
M552.496582,720.745239 
	C556.824524,720.712463 561.162354,720.853271 565.478088,720.606812 
	C572.209412,720.222290 577.075378,716.563049 577.437683,710.733215 
	C577.971252,702.148376 579.599792,693.596802 577.863647,684.879272 
	C576.412231,677.591309 574.300476,674.704041 567.035767,674.478088 
	C556.227112,674.142090 545.398865,674.192688 534.584473,674.387207 
	C529.203247,674.483948 526.323181,677.309937 525.453552,682.539429 
	C523.886597,691.961792 523.830872,701.412598 525.481262,710.824036 
	C526.288635,715.428528 528.745239,718.599976 533.623535,719.838440 
	C539.562744,721.346252 545.548279,720.384827 552.496582,720.745239 
z"/>
<path fill="#000000" opacity="1.000000" stroke="none" 
	d="
M423.000366,654.637939 
	C435.991089,654.634705 448.482483,654.695984 460.972504,654.591980 
	C465.012207,654.558411 468.952271,655.221069 472.827576,656.041870 
	C482.438812,658.078003 487.771667,663.890808 489.037384,674.392639 
	C489.709442,679.968750 489.606415,685.736694 489.053925,691.339233 
	C488.188721,700.112793 485.515625,708.092041 475.350403,711.405334 
	C481.126892,720.858215 486.617401,729.843201 492.475250,739.429260 
	C487.681824,740.931702 483.341248,739.685242 479.237213,740.362183 
	C470.557098,741.793762 465.767578,738.078735 461.723602,730.406982 
	C453.142395,714.127808 452.704987,714.333557 434.179474,714.383972 
	C423.115112,714.414062 424.399567,713.351501 424.370789,724.356445 
	C424.360352,728.346069 424.452148,732.349487 424.788116,736.321960 
	C425.025116,739.124695 424.128693,740.362793 421.264038,740.309204 
	C416.269226,740.215637 411.270538,740.183533 406.276093,740.271606 
	C403.559174,740.319458 402.378601,739.326599 402.394440,736.483704 
	C402.537994,710.670837 402.631958,684.857544 402.641632,659.044373 
	C402.642822,655.853638 403.775726,654.536377 407.012970,654.626282 
	C412.171600,654.769531 417.337585,654.647888 423.000366,654.637939 
M424.387970,687.372192 
	C425.099396,689.981934 422.306335,694.494507 427.676605,694.613098 
	C438.291931,694.847473 448.920837,694.858643 459.534637,694.589111 
	C464.015594,694.475403 466.407227,690.506836 466.645477,684.201111 
	C466.864868,678.394897 465.363892,676.282410 460.383453,675.243225 
	C452.487885,673.595825 444.499664,674.529358 436.556702,674.417175 
	C424.374786,674.245056 424.373047,674.368408 424.387970,687.372192 
z"/>
<path fill="#000000" opacity="1.000000" stroke="none" 
	d="
M460.656158,266.437927 
	C457.003082,266.050598 453.565643,266.937134 450.435669,264.715912 
	C453.757446,257.956787 458.991364,252.994888 463.769257,247.748596 
	C479.700531,230.255676 495.184753,212.381622 509.994385,193.934128 
	C512.719971,190.539047 514.231689,190.803833 516.672180,194.155441 
	C532.568481,215.986267 550.420898,236.232803 567.787170,256.872406 
	C569.264709,258.628418 571.126282,260.157043 571.574158,262.620544 
	C570.197510,265.321564 567.329834,264.725372 565.348389,264.876892 
	C544.978333,266.434845 524.813477,270.625763 504.317444,270.272888 
	C489.856140,270.023987 475.468201,268.246155 460.656158,266.437927 
z"/>
<path fill="#000000" opacity="1.000000" stroke="none" 
	d="
M845.218384,720.016724 
	C845.221436,725.513428 845.083923,730.518494 845.275208,735.510986 
	C845.409912,739.026184 843.879761,740.299194 840.542297,740.215454 
	C836.378845,740.110962 832.195374,739.986511 828.048523,740.273987 
	C823.919373,740.560181 822.563293,739.043762 822.599243,734.889954 
	C822.792542,712.559631 822.742371,690.227173 822.774475,667.895447 
	C822.778809,664.895691 822.851135,661.893250 822.750061,658.896851 
	C822.652771,656.013306 823.716797,654.576477 826.801514,654.657166 
	C831.631104,654.783508 836.469116,654.782410 841.298523,654.650940 
	C844.464600,654.564697 845.247925,656.151184 845.230103,658.969299 
	C845.180725,666.801270 845.359070,674.634766 845.303406,682.466614 
	C845.283997,685.206848 846.130981,686.205627 849.069275,686.203857 
	C861.725830,686.196289 874.387634,686.304016 887.036438,686.712830 
	C891.539795,686.858398 892.953430,685.197205 892.701416,680.923523 
	C892.280518,673.784790 893.220337,666.601562 891.999207,659.472595 
	C891.503601,656.579529 892.284668,654.580444 895.845520,654.664001 
	C900.675232,654.777405 905.511047,654.725220 910.342407,654.642212 
	C913.092957,654.594971 914.254456,655.809509 914.206299,658.545166 
	C913.971619,671.866150 914.333618,685.181580 913.716370,698.515991 
	C913.170593,710.306152 913.640869,722.161865 914.099548,733.971558 
	C914.299561,739.119629 912.534851,740.914734 907.523499,740.385864 
	C904.225342,740.037842 900.851990,740.105774 897.534058,740.321228 
	C893.960449,740.553345 892.192261,739.294983 892.411377,735.571655 
	C892.841980,728.256653 891.614136,720.953552 892.454346,713.608521 
	C893.102234,707.944397 892.172913,707.133606 886.563843,707.116211 
	C874.564697,707.079102 862.561890,707.269592 850.567871,707.019836 
	C846.305481,706.931091 844.826172,708.467224 845.178223,712.522705 
	C845.379211,714.838745 845.217041,717.186279 845.218384,720.016724 
z"/>
<path fill="#000000" opacity="1.000000" stroke="none" 
	d="
M740.461304,717.466797 
	C742.779968,720.027161 745.467285,720.671631 748.393188,720.672485 
	C758.390869,720.675476 768.388672,720.641113 778.386169,720.685791 
	C783.229309,720.707458 786.452637,718.936646 786.824951,713.652588 
	C786.998901,711.182922 788.412170,710.164246 790.814514,710.246338 
	C795.807190,710.417053 800.800781,710.639893 805.794739,710.659058 
	C808.795959,710.670593 809.591736,712.278687 809.240417,714.813965 
	C807.299133,728.823303 804.107056,740.459106 782.687134,740.384399 
	C770.023682,740.340149 757.358765,740.455322 744.697144,740.292969 
	C740.725281,740.242126 736.709656,739.796021 732.804932,739.053223 
	C722.948547,737.178162 716.952332,730.946655 715.908142,720.679321 
	C714.305725,704.923401 713.996155,689.119812 716.626953,673.406677 
	C718.582947,661.723450 724.851379,656.123718 736.608643,654.637146 
	C745.913635,653.460693 755.225647,653.764526 764.542236,653.738770 
	C773.530640,653.713928 782.509277,653.619202 791.486816,654.624878 
	C802.757507,655.887512 811.815857,669.372070 808.086182,679.774780 
	C807.311584,681.935364 805.520752,682.211426 803.661072,682.252441 
	C800.163574,682.329651 796.656921,682.157959 793.166138,682.332031 
	C789.154602,682.532043 785.981506,682.176453 785.368286,677.041870 
	C785.057251,674.437134 782.305664,673.476990 779.929382,673.496277 
	C768.788635,673.586731 757.625916,672.547485 746.508972,674.246460 
	C741.499451,675.011963 738.890869,677.681458 738.257690,682.690063 
	C736.787415,694.318970 736.731079,705.842407 740.461304,717.466797 
z"/>
<path fill="#000000" opacity="1.000000" stroke="none" 
	d="
M304.661987,710.999634 
	C304.676544,693.848938 304.821228,677.196655 304.617523,660.548584 
	C304.562531,656.051819 305.851379,654.454529 310.517975,654.525513 
	C327.331421,654.781555 344.151031,654.703796 360.967712,654.627747 
	C364.838074,654.610229 368.618958,655.146484 372.344604,655.929016 
	C383.394623,658.249817 389.511810,665.455139 390.187592,677.460388 
	C390.541016,683.738220 390.664886,690.052185 389.456970,696.359558 
	C387.351746,707.352539 379.563782,714.255310 368.260834,714.358765 
	C356.939209,714.462402 345.615936,714.383484 334.293457,714.402344 
	C327.254944,714.414062 327.209991,714.428467 327.145966,721.680603 
	C327.101868,726.674377 327.152466,731.670532 327.261139,736.663452 
	C327.320190,739.374329 326.342621,740.578552 323.441620,740.454224 
	C318.454559,740.240540 313.452301,740.248474 308.459808,740.343079 
	C305.305298,740.402832 304.049469,739.371582 304.205200,735.957520 
	C304.576569,727.814880 304.535645,719.653442 304.661987,710.999634 
M353.443115,695.061401 
	C357.444763,694.515198 362.159576,696.379700 365.243408,692.714905 
	C368.481750,688.866394 368.321228,684.047058 366.975037,679.445801 
	C365.775299,675.345154 361.979767,674.627380 358.525085,674.523621 
	C349.383606,674.248962 340.228821,674.449280 331.080719,674.342041 
	C328.267670,674.309082 327.243622,675.564209 327.197601,678.229004 
	C327.131531,682.051514 326.852966,685.869812 326.709106,689.691589 
	C326.572235,693.326721 327.988037,695.143127 331.999878,695.018921 
	C338.812653,694.807983 345.638611,695.024414 353.443115,695.061401 
z"/>
<path fill="#000000" opacity="1.000000" stroke="none" 
	d="
M208.310928,739.963379 
	C206.322098,738.554565 206.699234,736.776917 206.693558,735.166382 
	C206.600876,708.849731 206.889221,682.537231 207.652328,656.230957 
	C207.660965,655.933228 207.890930,655.641907 208.022110,655.337036 
	C209.005737,654.478149 210.220993,654.688782 211.352905,654.687988 
	C230.513092,654.673950 249.675034,654.527771 268.832947,654.740356 
	C283.602173,654.904114 292.071167,663.493652 292.296539,678.191956 
	C292.388123,684.164856 292.942200,690.169739 291.642944,696.114319 
	C289.135010,707.588928 281.644928,714.070190 269.926331,714.287964 
	C258.267334,714.504700 246.598557,714.520569 234.940491,714.293640 
	C230.546921,714.208191 228.956924,715.731018 229.181305,720.069702 
	C229.447723,725.220886 229.120361,730.400635 229.298218,735.559448 
	C229.413895,738.914551 228.311523,740.481873 224.749710,740.331421 
	C219.427872,740.106628 214.093796,740.171753 208.310928,739.963379 
M265.738525,675.540649 
	C254.542099,673.050903 243.207138,674.759705 231.938934,674.464294 
	C230.086441,674.415649 229.407455,675.869263 229.395691,677.545715 
	C229.362961,682.210083 229.400742,686.874939 229.364212,691.539246 
	C229.346222,693.836365 230.452133,694.897766 232.708206,694.890625 
	C242.701035,694.859070 252.693954,694.848755 262.686676,694.797729 
	C264.386810,694.789062 265.958313,694.386963 267.159760,692.984863 
	C270.598389,688.972351 270.230469,680.161987 265.738525,675.540649 
z"/>
<path fill="#000000" opacity="1.000000" stroke="none" 
	d="
M683.252625,680.834595 
	C692.136597,700.476135 700.885925,719.763977 710.126343,740.134399 
	C701.801575,740.134399 694.878906,740.204285 687.959106,740.096130 
	C685.570374,740.058777 685.175232,737.722839 684.798767,736.115356 
	C682.647034,726.926575 677.148193,724.027405 667.837708,724.962097 
	C658.444702,725.905029 648.882263,725.327698 639.400146,725.128662 
	C635.867859,725.054626 633.456848,726.191833 632.652771,729.559631 
	C630.442505,738.816528 624.715515,742.004944 615.550964,740.383484 
	C612.387146,739.823730 609.040955,740.294434 605.583618,740.294434 
	C605.828613,735.527039 608.215698,732.383240 609.724182,728.960327 
	C620.049988,705.528931 630.210999,682.023315 641.379333,658.969238 
	C643.022583,655.577209 645.054993,654.408630 648.700745,654.574951 
	C654.679932,654.847900 660.685181,654.794800 666.670166,654.596802 
	C669.953796,654.488098 671.832825,655.625244 673.154236,658.703003 
	C676.302612,666.036499 679.775879,673.230530 683.252625,680.834595 
M649.993164,691.317078 
	C648.128418,695.791016 645.331299,699.917786 644.180115,705.257629 
	C653.261963,705.257629 661.599060,705.257629 670.589966,705.257629 
	C666.510681,694.930054 662.893311,685.088745 657.271301,674.619446 
	C654.591187,680.710388 652.415466,685.655090 649.993164,691.317078 
z"/>
<path fill="#000000" opacity="1.000000" stroke="none" 
	d="
M131.453583,658.364563 
	C132.495010,655.421997 134.287415,654.560181 136.979980,654.621094 
	C143.302429,654.764282 149.632492,654.765259 155.954987,654.623596 
	C158.687836,654.562317 160.176865,655.660095 161.277679,658.099060 
	C172.978638,684.023865 184.755493,709.914429 196.507721,735.816101 
	C197.058731,737.030518 197.644485,738.252380 196.699753,740.202393 
	C190.389664,740.202393 183.781296,740.219482 177.173080,740.193115 
	C174.856613,740.183899 173.971832,738.406067 173.604568,736.619202 
	C171.526398,726.507690 165.265701,723.934021 155.530548,724.967407 
	C146.639771,725.911133 137.570786,725.317078 128.584885,725.152710 
	C125.127312,725.089417 122.605125,725.995544 121.824028,729.527771 
	C119.744682,738.930969 113.841515,741.987671 104.737022,740.372131 
	C101.678345,739.829346 98.443153,740.839966 94.531219,739.428589 
	C106.702576,712.380005 118.394333,685.287598 131.453583,658.364563 
M150.547073,684.875183 
	C148.704803,682.299194 148.857529,678.594421 145.768600,675.926147 
	C141.402679,685.821594 137.285446,695.153320 132.848770,705.209106 
	C142.143677,705.209106 150.428772,705.209106 159.182327,705.209106 
	C157.251587,697.881958 153.358841,692.008606 150.547073,684.875183 
z"/>
</svg>